<svg width="638" height="638" viewBox="0 0 638 638" fill="none" xmlns="http://www.w3.org/2000/svg">
<rect width="638" height="638" rx="100" fill="url(#paint0_linear_2_38)"/>
<path d="M201.812 164.75C198.93 161.874 195.025 160.259 190.953 160.259C186.881 160.259 182.976 161.874 180.094 164.75L154.641 190.219C151.77 193.1 150.157 197.003 150.157 201.07C150.157 205.138 151.77 209.04 154.641 211.922L168.656 225.937C180.489 206.856 195.839 190.196 213.891 176.844L201.797 164.75H201.812ZM461.156 424.109C447.786 442.145 431.13 457.492 412.062 469.344L426.094 483.359C428.975 486.226 432.873 487.835 436.937 487.835C441.001 487.835 444.9 486.226 447.781 483.359L473.25 457.891C476.116 455.01 477.725 451.111 477.725 447.047C477.725 442.983 476.116 439.084 473.25 436.203L461.156 424.109ZM307.437 260.875C307.81 262.108 307.936 263.403 307.808 264.685C307.68 265.967 307.3 267.211 306.691 268.346C306.081 269.48 305.254 270.484 304.256 271.299C303.258 272.114 302.109 272.724 300.875 273.094L265.047 283.812C262.552 284.558 259.863 284.283 257.572 283.046C255.28 281.81 253.574 279.713 252.828 277.219C252.082 274.724 252.358 272.035 253.594 269.744C254.831 267.452 256.927 265.746 259.422 265L295.234 254.281C300.422 252.719 305.875 255.687 307.437 260.875ZM371.609 294.812C372.881 295.018 374.101 295.471 375.198 296.148C376.294 296.824 377.247 297.71 378.002 298.755C378.756 299.799 379.298 300.982 379.595 302.236C379.892 303.49 379.939 304.79 379.734 306.062L373.766 342.984C373.351 345.554 371.933 347.853 369.823 349.377C367.713 350.901 365.085 351.524 362.516 351.109C359.946 350.695 357.647 349.277 356.123 347.167C354.599 345.057 353.976 342.429 354.391 339.859L360.359 302.937C360.564 301.665 361.018 300.446 361.695 299.349C362.371 298.252 363.257 297.299 364.301 296.545C365.346 295.79 366.529 295.249 367.783 294.952C369.037 294.655 370.337 294.607 371.609 294.812ZM303.812 388.844C304.729 389.751 305.814 390.468 307.008 390.956C308.201 391.443 309.479 391.69 310.768 391.684C312.058 391.677 313.333 391.417 314.521 390.918C315.71 390.418 316.788 389.69 317.695 388.773C318.602 387.857 319.32 386.771 319.807 385.578C320.294 384.384 320.542 383.107 320.535 381.817C320.529 380.528 320.268 379.253 319.769 378.065C319.27 376.876 318.541 375.798 317.625 374.891L291.062 348.578C289.204 346.796 286.72 345.815 284.145 345.847C281.571 345.88 279.112 346.923 277.3 348.752C275.487 350.581 274.466 353.049 274.457 355.624C274.448 358.198 275.451 360.674 277.25 362.516L303.812 388.844ZM350.062 265.766C349.116 266.787 347.974 267.607 346.704 268.177C345.433 268.746 344.061 269.053 342.669 269.08C341.277 269.106 339.894 268.851 338.603 268.33C337.311 267.809 336.139 267.033 335.155 266.048C334.171 265.063 333.396 263.889 332.876 262.598C332.357 261.306 332.103 259.923 332.131 258.531C332.159 257.139 332.468 255.767 333.038 254.497C333.609 253.227 334.43 252.085 335.453 251.141C337.417 249.326 340.007 248.342 342.68 248.396C345.353 248.449 347.901 249.536 349.791 251.427C351.68 253.319 352.764 255.869 352.815 258.542C352.865 261.215 351.879 263.804 350.062 265.766ZM369.937 391.375C368.985 392.369 367.843 393.163 366.58 393.71C365.316 394.257 363.956 394.546 362.58 394.56C361.203 394.575 359.837 394.314 358.562 393.794C357.288 393.274 356.13 392.505 355.156 391.531C354.183 390.558 353.413 389.4 352.893 388.125C352.373 386.85 352.113 385.484 352.127 384.108C352.142 382.731 352.431 381.371 352.978 380.108C353.525 378.844 354.318 377.703 355.312 376.75C357.276 374.935 359.866 373.952 362.539 374.005C365.212 374.059 367.761 375.145 369.65 377.037C371.54 378.928 372.624 381.478 372.674 384.151C372.725 386.824 371.754 389.413 369.937 391.375ZM231.891 347.141C232.835 348.163 233.977 348.984 235.247 349.555C236.517 350.126 237.889 350.435 239.281 350.462C240.673 350.49 242.056 350.237 243.348 349.717C244.639 349.198 245.813 348.423 246.798 347.439C247.783 346.455 248.559 345.282 249.08 343.991C249.601 342.7 249.856 341.317 249.829 339.925C249.803 338.533 249.496 337.161 248.927 335.89C248.357 334.62 247.537 333.477 246.516 332.531C244.554 330.715 241.965 329.728 239.292 329.779C236.619 329.829 234.069 330.913 232.177 332.803C230.286 334.692 229.199 337.241 229.146 339.914C229.092 342.587 230.076 345.177 231.891 347.141Z" fill="white"/>
<path d="M413.656 413.656C401.284 426.348 386.515 436.456 370.205 443.395C353.896 450.333 336.371 453.965 318.647 454.077C300.923 454.19 283.354 450.782 266.957 444.052C250.561 437.321 235.664 427.402 223.131 414.869C210.598 402.336 200.679 387.439 193.948 371.043C187.218 354.646 183.81 337.077 183.923 319.353C184.035 301.629 187.667 284.104 194.605 267.795C201.544 251.485 211.652 236.716 224.344 224.344C249.556 199.765 283.437 186.109 318.647 186.333C353.857 186.557 387.561 200.643 412.459 225.541C437.357 250.439 451.443 284.143 451.667 319.353C451.891 354.563 438.235 388.444 413.656 413.656ZM332.797 428.203C340.375 429.438 347.891 430.641 354.703 428.516C361.672 426.25 367.047 420.781 372.391 415.313C375.641 412 378.875 408.688 382.469 406.109C386.016 403.578 390.094 401.531 394.187 399.5C401.062 396.063 407.969 392.625 412.312 386.734C416.578 380.953 417.703 373.391 418.844 365.797C419.516 361.203 420.203 356.609 421.578 352.391C422.875 348.406 424.937 344.484 427.016 340.516C430.594 333.688 434.25 326.719 434.25 319C434.25 311.453 430.609 304.453 427.031 297.578C424.894 293.747 423.07 289.75 421.578 285.625C420.203 281.391 419.5 276.781 418.797 272.188C417.641 264.641 416.484 257.094 412.328 251.25C408.031 245.281 401.078 241.875 394.172 238.438C390.1 236.575 386.186 234.386 382.469 231.891C379.012 229.18 375.773 226.202 372.781 222.984C367.312 217.422 361.797 211.781 354.703 209.469C347.984 207.281 340.562 208.516 332.984 209.766C328.372 210.654 323.695 211.166 319 211.297C314.469 211.297 309.828 210.547 305.203 209.797C297.625 208.578 290.109 207.359 283.297 209.484C276.328 211.75 270.953 217.234 265.609 222.688C262.359 226 259.125 229.312 255.531 231.906C251.804 234.408 247.885 236.612 243.812 238.5C236.937 241.938 230.031 245.375 225.687 251.266C221.422 257.047 220.297 264.609 219.156 272.203C218.616 276.745 217.701 281.234 216.422 285.625C214.938 289.721 213.12 293.687 210.984 297.484C207.391 304.313 203.75 311.297 203.75 319C203.75 326.547 207.391 333.547 210.969 340.422C213.062 344.438 215.109 348.391 216.422 352.391C217.797 356.609 218.5 361.219 219.203 365.813C220.359 373.375 221.516 380.906 225.672 386.75C229.969 392.719 236.922 396.141 243.828 399.563C247.922 401.563 252 403.578 255.531 406.125C258.922 408.625 262.062 411.813 265.219 415.031C270.687 420.578 276.203 426.219 283.297 428.531C290.203 430.719 297.719 429.469 305.281 428.219C309.875 427.469 314.5 426.703 319 426.703C323.531 426.703 328.172 427.453 332.797 428.203Z" fill="white"/>
<path d="M134.875 119.516C149.753 104.652 169.923 96.3027 190.953 96.3027C211.983 96.3027 232.154 104.652 247.031 119.516L250.156 122.641C323.203 97.1094 407.672 113.484 466.094 171.906C524.531 230.328 540.891 314.813 515.344 387.844L518.469 390.969C533.332 405.846 541.682 426.017 541.682 447.047C541.682 468.077 533.332 488.247 518.469 503.125L493.016 528.594C478.137 543.462 457.964 551.814 436.93 551.814C415.896 551.814 395.722 543.462 380.844 528.594L372.359 520.094C337.143 529.446 300.087 529.381 264.903 519.903C229.72 510.426 197.645 491.87 171.891 466.094C146.12 440.34 127.568 408.266 118.094 373.086C108.619 337.906 108.555 300.854 117.906 265.641L109.406 257.156C94.5377 242.278 86.1855 222.104 86.1855 201.07C86.1855 180.036 94.5377 159.863 109.406 144.984L134.875 119.516ZM224.937 141.625C215.92 132.62 203.697 127.562 190.953 127.562C178.209 127.562 165.986 132.62 156.969 141.625L131.5 167.094C122.495 176.111 117.437 188.334 117.437 201.078C117.437 213.822 122.495 226.045 131.5 235.063L153.422 256.969C141.524 288.75 139.023 323.285 146.218 356.449C153.414 389.613 170.001 420.007 194 444C217.993 467.999 248.387 484.586 281.551 491.782C314.715 498.977 349.249 496.476 381.031 484.578L402.953 506.5C411.971 515.505 424.194 520.563 436.937 520.563C449.681 520.563 461.904 515.505 470.922 506.5L496.391 481.031C505.396 472.014 510.454 459.791 510.454 447.047C510.454 434.303 505.396 422.08 496.391 413.063L478.547 395.234C509.953 329.516 498.422 248.422 444 194C389.578 139.578 308.484 128.062 242.766 159.453L224.953 141.625H224.937Z" fill="white"/>
<defs>
<linearGradient id="paint0_linear_2_38" x1="319" y1="0" x2="319" y2="638" gradientUnits="userSpaceOnUse">
<stop stop-color="#F9A11B"/>
<stop offset="1" stop-color="#F96B1B"/>
</linearGradient>
</defs>
</svg>
