<svg width="30" height="30" viewBox="0 0 30 30" fill="none" xmlns="http://www.w3.org/2000/svg">
<path d="M23.68 13.89C23.1338 9.5875 19.45 6.25 15 6.25C11.555 6.25 8.5625 8.2625 7.19625 11.4363C4.51125 12.24 2.5 14.775 2.5 17.5C2.5 20.8212 5.11125 23.5188 8.385 23.7138V23.75H22.4875V23.7463L22.5 23.75C25.2575 23.75 27.5 21.5075 27.5 18.75C27.4985 17.6294 27.1214 16.5416 26.4289 15.6606C25.7364 14.7796 24.7685 14.1562 23.68 13.89ZM10 15H13.75V11.25H16.25V15H20L15 21.25L10 15Z" fill="white"/>
</svg>
