<svg width="30" height="30" viewBox="0 0 30 30" fill="none" xmlns="http://www.w3.org/2000/svg">
<circle cx="15" cy="15" r="15" fill="#F9A11B"/>
<path d="M14.9999 15.0001C17.3011 15.0001 19.1666 13.1346 19.1666 10.8334C19.1666 8.53223 17.3011 6.66675 14.9999 6.66675C12.6987 6.66675 10.8333 8.53223 10.8333 10.8334C10.8333 13.1346 12.6987 15.0001 14.9999 15.0001Z" stroke="white" stroke-width="2"/>
<path d="M19.1666 16.6667H19.4599C20.0691 16.6669 20.6573 16.8896 21.114 17.2928C21.5707 17.6961 21.8643 18.2522 21.9399 18.8567L22.2657 21.4601C22.295 21.6946 22.2741 21.9327 22.2044 22.1585C22.1346 22.3843 22.0177 22.5927 21.8612 22.7699C21.7048 22.9471 21.5125 23.0889 21.297 23.1861C21.0816 23.2833 20.8479 23.3335 20.6116 23.3334H9.38822C9.15187 23.3335 8.91822 23.2833 8.70276 23.1861C8.4873 23.0889 8.29497 22.9471 8.13853 22.7699C7.9821 22.5927 7.86513 22.3843 7.79539 22.1585C7.72566 21.9327 7.70475 21.6946 7.73405 21.4601L8.05905 18.8567C8.13463 18.2519 8.42857 17.6956 8.88558 17.2923C9.34259 16.889 9.9312 16.6665 10.5407 16.6667H10.8332" stroke="white" stroke-width="2" stroke-linecap="round" stroke-linejoin="round"/>
</svg>
